<svg width="1440" height="175" viewBox="0 0 1440 175" fill="none" xmlns="http://www.w3.org/2000/svg">
<path fill-rule="evenodd" clip-rule="evenodd" d="M-52 0H-20.9167C10.1667 0 72.3333 0 134.5 25.9259C196.667 51.8519 258.833 103.704 321 100.463C383.167 97.2222 445.333 38.8889 507.5 35.6481C569.667 32.4074 631.833 84.2593 694 100.463C756.167 116.667 818.333 97.2222 880.5 100.463C942.667 103.704 1004.83 129.63 1067 126.389C1129.17 123.148 1191.33 90.7407 1253.5 90.7407C1315.67 90.7407 1377.83 123.148 1408.92 139.352L1440 155.556V175H1408.92C1377.83 175 1315.67 175 1253.5 175C1191.33 175 1129.17 175 1067 175C1004.83 175 942.667 175 880.5 175C818.333 175 756.167 175 694 175C631.833 175 569.667 175 507.5 175C445.333 175 383.167 175 321 175C258.833 175 196.667 175 134.5 175C72.3333 175 10.1667 175 -20.9167 175H-52V0Z" fill="#F2B705"/>
</svg>
